# xmcd CD database file
#
# Track frame offsets:
#	150
#	16200
#	38325
#	51600
#	65925
#	87825
#	108900
#	122400
#	137775
#	149850
#
# Disc length: 2418 seconds
#
# Revision: 0
# Processed by: cddbd v1.5.2PL0 Copyright (c) Steve Scherf et al.
# Submitted via: jetAudio 7
#
DISCID=9009700a
DTITLE=Johnny Copeland - Copeland Special
DYEAR=1900
DGENRE=Blues
TTITLE0=Claim Jumper
TTITLE1=I Wish I Was Single
TTITLE2=Everybody Wants A Piece Of Me
TTITLE3=Copeland Special
TTITLE4=It's My Own Tears
TTITLE5=Third Party
TTITLE6=Big Time
TTITLE7=Down On Bended Knees
TTITLE8=Done Got Over It
TTITLE9=St. Louis Blues
EXTD=
EXTT0=
EXTT1=
EXTT2=
EXTT3=
EXTT4=
EXTT5=
EXTT6=
EXTT7=
EXTT8=
EXTT9=
PLAYORDER=
